# xmcd
#
# Track frame offsets:
#	150
#	10662
#	19462
#	33575
#	47730
#	62042
#	79415
#	89930
#	103997
#
# Disc length: 1558
#
# Revision: 2
# Processed by: cddbd v1.5.1PL0 Copyright (c) Steve Scherf et al.
# Submitted via: audiograbber 1.80
# Normalized: r1:DSETVAR1
#
DISCID=7c061409
DTITLE=Various Artist - Country Christmas Classics
DYEAR=1900
DGENRE=
TTITLE0=George Jones - Jingle Bells
TTITLE1=Loretta Lynn - Frosty The Snowman
TTITLE2=Lacy J Dalton - Silver Bells
TTITLE3=Marty Robbins - Hark The Herald Angels Sing
TTITLE4=Glen Campbell - Christmas Song
TTITLE5=Crystal Gayle - Have Yourself A Merry Little Christmas
TTITLE6=Tanya Tucker - Away In A Manger
TTITLE7=The Forester Sisters - I'll Be Home For Christmas
TTITLE8=Steve Wariner - Noel Noel
EXTD=
EXTT0=
EXTT1=
EXTT2=
EXTT3=
EXTT4=
EXTT5=
EXTT6=
EXTT7=
EXTT8=
PLAYORDER=
